<svg width="25" height="25" viewBox="0 0 25 25" fill="none" xmlns="http://www.w3.org/2000/svg">
<path fill-rule="evenodd" clip-rule="evenodd" d="M5.42629 0.389742C10.1277 -0.129914 14.8722 -0.129914 19.5736 0.389742C22.1767 0.681007 24.2767 2.72745 24.5822 5.33518C25.1393 10.0955 25.1393 14.9045 24.5822 19.6648C24.2767 22.2725 22.1767 24.319 19.5736 24.6103C14.8722 25.1299 10.1277 25.1299 5.42629 24.6103C2.82325 24.319 0.723183 22.2725 0.417747 19.6648C-0.139249 14.905 -0.139249 10.0966 0.417747 5.3367C0.57224 4.0698 1.15076 2.89211 2.05956 1.9945C2.96835 1.09688 4.15415 0.531952 5.42477 0.391259M12.5 4.92559C12.8022 4.92559 13.0921 5.04546 13.3058 5.25883C13.5196 5.4722 13.6396 5.76159 13.6396 6.06334V11.3622H18.9476C19.2498 11.3622 19.5397 11.4821 19.7534 11.6955C19.9672 11.9089 20.0872 12.1982 20.0872 12.5C20.0872 12.8017 19.9672 13.0911 19.7534 13.3045C19.5397 13.5179 19.2498 13.6378 18.9476 13.6378H13.6396V18.9367C13.6396 19.2384 13.5196 19.5278 13.3058 19.7412C13.0921 19.9545 12.8022 20.0744 12.5 20.0744C12.1977 20.0744 11.9078 19.9545 11.6941 19.7412C11.4803 19.5278 11.3603 19.2384 11.3603 18.9367V13.6378H6.05236C5.7501 13.6378 5.46021 13.5179 5.24648 13.3045C5.03275 13.0911 4.91268 12.8017 4.91268 12.5C4.91268 12.1982 5.03275 11.9089 5.24648 11.6955C5.46021 11.4821 5.7501 11.3622 6.05236 11.3622H11.3603V6.06334C11.3603 5.76159 11.4803 5.4722 11.6941 5.25883C11.9078 5.04546 12.1977 4.92559 12.5 4.92559Z" fill="#5A5A5A"/>
</svg>
