<svg width="31" height="31" viewBox="0 0 31 31" fill="none" xmlns="http://www.w3.org/2000/svg">
<path d="M9.34167 22.4101L15.0417 16.7101L20.7417 22.4101L22.4101 20.7417L16.7101 15.0417L22.4101 9.34167L20.7417 7.67323L15.0417 13.3732L9.34167 7.67323L7.67323 9.34167L13.3732 15.0417L7.67323 20.7417L9.34167 22.4101ZM15.0444 30.0833C12.9639 30.0833 11.0084 29.6886 9.17779 28.899C7.34719 28.1094 5.75489 27.0379 4.40087 25.6844C3.04686 24.331 1.97481 22.7393 1.18473 20.9095C0.394909 19.0797 0 17.1247 0 15.0444C0 12.9639 0.394778 11.0084 1.18433 9.17779C1.97389 7.34719 3.04541 5.75489 4.3989 4.40087C5.75238 3.04686 7.34403 1.97481 9.17383 1.18473C11.0036 0.394909 12.9587 0 15.0389 0C17.1194 0 19.0749 0.394777 20.9055 1.18433C22.7361 1.97389 24.3284 3.04541 25.6825 4.3989C27.0365 5.75238 28.1085 7.34403 28.8986 9.17383C29.6884 11.0036 30.0833 12.9587 30.0833 15.0389C30.0833 17.1194 29.6886 19.0749 28.899 20.9055C28.1094 22.7361 27.0379 24.3284 25.6844 25.6825C24.331 27.0365 22.7393 28.1085 20.9095 28.8986C19.0797 29.6884 17.1247 30.0833 15.0444 30.0833Z" fill="#959595"/>
</svg>
