<svg width="24" height="24" viewBox="0 0 24 24" fill="none" xmlns="http://www.w3.org/2000/svg">
<path d="M7.375 17.6922L11.875 13.1922L16.375 17.6922L17.6922 16.375L13.1922 11.875L17.6922 7.375L16.375 6.05781L11.875 10.5578L7.375 6.05781L6.05781 7.375L10.5578 11.875L6.05781 16.375L7.375 17.6922ZM11.8772 23.75C10.2347 23.75 8.69083 23.4383 7.24562 22.815C5.80042 22.1917 4.54333 21.3457 3.47437 20.2772C2.40542 19.2086 1.55906 17.9521 0.935312 16.5075C0.311771 15.0629 0 13.5195 0 11.8772C0 10.2347 0.311667 8.69083 0.935 7.24562C1.55833 5.80042 2.40427 4.54333 3.47281 3.47437C4.54135 2.40542 5.79792 1.55906 7.2425 0.935312C8.68708 0.311771 10.2305 0 11.8728 0C13.5153 0 15.0592 0.311666 16.5044 0.935C17.9496 1.55833 19.2067 2.40427 20.2756 3.47281C21.3446 4.54135 22.1909 5.79792 22.8147 7.2425C23.4382 8.68708 23.75 10.2305 23.75 11.8728C23.75 13.5153 23.4383 15.0592 22.815 16.5044C22.1917 17.9496 21.3457 19.2067 20.2772 20.2756C19.2086 21.3446 17.9521 22.1909 16.5075 22.8147C15.0629 23.4382 13.5195 23.75 11.8772 23.75Z" fill="#5A5A5A"/>
</svg>
