<svg width="15" height="15" viewBox="0 0 15 15" fill="none" xmlns="http://www.w3.org/2000/svg">
<path d="M1.65844 13.2675H2.84007L10.9457 5.16188L9.76404 3.98025L1.65844 12.0859V13.2675ZM0 14.9259V11.4017L10.9457 0.4768C11.1115 0.324777 11.2948 0.207305 11.4954 0.124383C11.6961 0.041461 11.9067 0 12.1273 0C12.3479 0 12.5621 0.041461 12.77 0.124383C12.9778 0.207305 13.1575 0.331687 13.3089 0.497531L14.4491 1.65844C14.615 1.81046 14.736 1.99012 14.8123 2.19743C14.8886 2.40473 14.9265 2.61204 14.9259 2.81934C14.9259 3.04047 14.8881 3.25136 14.8123 3.45204C14.7366 3.65271 14.6155 3.83569 14.4491 4.00098L3.52418 14.9259H0ZM10.3445 4.58143L9.76404 3.98025L10.9457 5.16188L10.3445 4.58143Z" fill="white"/>
</svg>
