<svg width="29" height="22" viewBox="0 0 29 22" fill="none" xmlns="http://www.w3.org/2000/svg">
<path d="M12.6875 22C12.6875 22 10.875 22 10.875 20.1667C10.875 18.3333 12.6875 12.8333 19.9375 12.8333C27.1875 12.8333 29 18.3333 29 20.1667C29 22 27.1875 22 27.1875 22H12.6875ZM19.9375 11C21.3796 11 22.7627 10.4205 23.7824 9.38909C24.8021 8.35764 25.375 6.95869 25.375 5.5C25.375 4.04131 24.8021 2.64236 23.7824 1.61091C22.7627 0.579463 21.3796 0 19.9375 0C18.4954 0 17.1123 0.579463 16.0926 1.61091C15.0729 2.64236 14.5 4.04131 14.5 5.5C14.5 6.95869 15.0729 8.35764 16.0926 9.38909C17.1123 10.4205 18.4954 11 19.9375 11ZM9.454 22C9.18543 21.4276 9.05144 20.8001 9.0625 20.1667C9.0625 17.6825 10.295 15.125 12.5715 13.3467C11.4354 12.9918 10.2515 12.8186 9.0625 12.8333C1.8125 12.8333 0 18.3333 0 20.1667C0 22 1.8125 22 1.8125 22H9.454ZM8.15625 11C9.35801 11 10.5106 10.5171 11.3603 9.65757C12.2101 8.79803 12.6875 7.63224 12.6875 6.41667C12.6875 5.20109 12.2101 4.0353 11.3603 3.17576C10.5106 2.31622 9.35801 1.83333 8.15625 1.83333C6.95449 1.83333 5.80195 2.31622 4.95217 3.17576C4.1024 4.0353 3.625 5.20109 3.625 6.41667C3.625 7.63224 4.1024 8.79803 4.95217 9.65757C5.80195 10.5171 6.95449 11 8.15625 11Z" fill="#5A5A5A"/>
</svg>
