<svg width="28" height="28" viewBox="0 0 28 28" fill="none" xmlns="http://www.w3.org/2000/svg">
<path fill-rule="evenodd" clip-rule="evenodd" d="M14 1.53823e-10C15.8385 -8.61786e-06 17.659 0.362105 19.3575 1.06567C21.0561 1.76923 22.5995 2.80045 23.8995 4.10047C25.1995 5.40049 26.2307 6.94384 26.9343 8.6424C27.6379 10.341 28 12.1615 28 14C28 21.732 21.732 28 14 28C6.26804 28 0 21.732 0 14C0 6.26804 6.26804 1.53823e-10 14 1.53823e-10ZM15.4 15.4H12.6C9.13401 15.4 6.15838 17.4992 4.87495 20.4957C6.90565 23.3432 10.236 25.2 14 25.2C17.764 25.2 21.0943 23.3432 23.1251 20.4955C21.8416 17.4992 18.866 15.4 15.4 15.4ZM14 4.2C11.6804 4.2 9.79997 6.08041 9.79997 8.39999C9.79997 10.7196 11.6804 12.6 14 12.6C16.3195 12.6 18.2 10.7196 18.2 8.39999C18.2 6.08041 16.3196 4.2 14 4.2Z" fill="#5A5A5A"/>
</svg>
