<svg width="50" height="50" viewBox="0 0 50 50" fill="none" xmlns="http://www.w3.org/2000/svg">
<path d="M5.5 49.5C3.9875 49.5 2.69317 48.9619 1.617 47.8857C0.540833 46.8096 0.00183333 45.5143 0 44V5.5C0 3.9875 0.539 2.69317 1.617 1.617C2.695 0.540833 3.98933 0.00183333 5.5 0H33.4813C34.2146 0 34.914 0.1375 35.5795 0.4125C36.245 0.6875 36.8289 1.07708 37.3313 1.58125L47.9187 12.1688C48.4229 12.6729 48.8125 13.2577 49.0875 13.9232C49.3625 14.5887 49.5 15.2872 49.5 16.0187V44C49.5 45.5125 48.9619 46.8078 47.8857 47.8857C46.8096 48.9637 45.5143 49.5018 44 49.5H5.5ZM33 5.5V13.75C33 14.5292 33.264 15.1828 33.792 15.7108C34.32 16.2388 34.9727 16.5018 35.75 16.5H44L33 5.5ZM35.75 38.5C36.5292 38.5 37.1827 38.236 37.7107 37.708C38.2387 37.18 38.5018 36.5273 38.5 35.75C38.4982 34.9727 38.2342 34.32 37.708 33.792C37.1818 33.264 36.5292 33 35.75 33H13.75C12.9708 33 12.3182 33.264 11.792 33.792C11.2658 34.32 11.0018 34.9727 11 35.75C10.9982 36.5273 11.2622 37.1809 11.792 37.7107C12.3218 38.2406 12.9745 38.5037 13.75 38.5H35.75ZM22 16.5C22.7792 16.5 23.4328 16.236 23.9608 15.708C24.4888 15.18 24.7518 14.5273 24.75 13.75C24.7482 12.9727 24.4842 12.32 23.958 11.792C23.4318 11.264 22.7792 11 22 11H13.75C12.9708 11 12.3182 11.264 11.792 11.792C11.2658 12.32 11.0018 12.9727 11 13.75C10.9982 14.5273 11.2622 15.1809 11.792 15.7108C12.3218 16.2406 12.9745 16.5037 13.75 16.5H22ZM35.75 27.5C36.5292 27.5 37.1827 27.236 37.7107 26.708C38.2387 26.18 38.5018 25.5273 38.5 24.75C38.4982 23.9727 38.2342 23.32 37.708 22.792C37.1818 22.264 36.5292 22 35.75 22H13.75C12.9708 22 12.3182 22.264 11.792 22.792C11.2658 23.32 11.0018 23.9727 11 24.75C10.9982 25.5273 11.2622 26.1809 11.792 26.7108C12.3218 27.2406 12.9745 27.5037 13.75 27.5H35.75Z" fill="#F9F9F9"/>
</svg>
